<?xml version="1.0" encoding="UTF-8"?>
<svg id="Calque_1" data-name="Calque 1" xmlns="http://www.w3.org/2000/svg" viewBox="0 0 218.36 165.15">
  <defs>
    <style>
      .cls-1 {
        fill: #18181b;
      }
    </style>
  </defs>
  <g>
    <path class="cls-1" d="M80.05,78.61v2.26h7.69v-2.26h-7.69ZM85.52,74.59c-1.29,0-2.24.31-2.83.94-.61.64-.9,1.5-.9,2.59v12.67h2.92v-12.51c0-.47.11-.83.33-1.07.22-.24.56-.38,1.04-.38h1.83v-2.25h-2.38Z"/>
    <path class="cls-1" d="M98.68,88.67c-.23,0-.41-.07-.52-.19-.11-.12-.17-.34-.17-.66v-4.42c0-1.63-.45-2.89-1.35-3.76-.88-.87-2.19-1.31-3.94-1.31-1.5,0-2.72.34-3.67,1.04-.95.69-1.53,1.69-1.78,2.98l2.97.14c.14-.61.43-1.08.83-1.41.41-.32.96-.49,1.65-.49.78,0,1.37.22,1.76.65.4.43.6,1.08.6,1.95l-4.05.79c-1.33.26-2.34.68-2.99,1.28s-.98,1.42-.98,2.47.39,1.86,1.17,2.45c.77.58,1.8.88,3.08.88.76,0,1.44-.11,2.05-.34s1.11-.55,1.52-.97c.26-.26.46-.56.6-.88.03.36.12.67.26.93.21.41.51.68.9.85.4.15.85.24,1.36.24.21,0,.42-.01.62-.03.21-.01.35-.03.45-.07v-2.12h-.39ZM95.07,85.86c0,.63-.13,1.17-.4,1.62-.25.45-.62.82-1.09,1.07-.47.26-1.04.4-1.69.4-.58,0-1.03-.13-1.33-.4-.32-.25-.47-.62-.47-1.09,0-.43.14-.77.43-1.04.28-.26.75-.47,1.4-.61l3.15-.64v.68Z"/>
    <path class="cls-1" d="M106.96,86.16c-.11.87-.4,1.51-.88,1.92-.47.41-1.07.62-1.79.62-.95,0-1.68-.35-2.19-1.05-.52-.71-.77-1.69-.77-2.94s.25-2.23.77-2.93c.52-.72,1.25-1.07,2.19-1.07.69,0,1.29.21,1.76.61.49.41.78.99.9,1.78l2.69-.14.32-.02c-.03-.24-.08-.47-.12-.71-.17-.67-.44-1.26-.83-1.76-.51-.68-1.17-1.2-1.97-1.57s-1.72-.55-2.76-.55c-1.22,0-2.27.26-3.18.81-.89.53-1.59,1.27-2.08,2.22-.5.96-.75,2.07-.75,3.35s.25,2.39.75,3.35c.5.96,1.19,1.7,2.08,2.23.9.52,1.95.78,3.18.78,1.05,0,1.97-.2,2.78-.58.81-.39,1.47-.94,1.96-1.65.36-.51.63-1.09.78-1.73.07-.25.12-.53.15-.81h-.36s-2.65-.13-2.65-.13Z"/>
    <path class="cls-1" d="M121.15,84.86c0-1.37-.23-2.54-.71-3.52-.46-.97-1.14-1.72-2.02-2.24-.87-.52-1.89-.77-3.04-.77s-2.23.26-3.12.81c-.88.53-1.58,1.27-2.06,2.22-.14.28-.25.56-.35.86-.08.23-.14.47-.2.73-.12.55-.18,1.14-.18,1.76,0,.56.04,1.08.13,1.58.06.29.12.55.21.82.1.34.23.66.39.96.49.96,1.18,1.7,2.07,2.23.9.52,1.96.78,3.18.78,1.4,0,2.59-.34,3.57-1.03.98-.68,1.64-1.62,1.97-2.81l-2.99-.18c-.17.53-.47.95-.9,1.25s-.98.44-1.63.44c-.87,0-1.57-.28-2.08-.82-.53-.54-.83-1.33-.88-2.4h8.65v-.66ZM112.51,83.56c.12-.94.44-1.67.95-2.17.51-.5,1.15-.75,1.93-.75s1.41.24,1.92.72c.5.49.78,1.21.84,2.21h-5.64Z"/>
    <path class="cls-1" d="M124.84,78.61v2.26h8.05v-2.26h-8.05ZM131.18,88.53c-.52,0-.89-.11-1.14-.33-.25-.22-.37-.61-.37-1.17v-11.28h-2.91v11.56c0,1.2.28,2.08.85,2.65s1.47.84,2.68.84h2.6v-2.26h-1.71Z"/>
    <path class="cls-1" d="M143.54,81.33c-.5-.95-1.19-1.69-2.08-2.22-.9-.52-1.95-.78-3.15-.78s-2.26.26-3.16.78c-.9.53-1.6,1.27-2.1,2.22-.5.95-.74,2.07-.74,3.37s.24,2.39.74,3.35c.5.96,1.19,1.7,2.1,2.23.9.52,1.96.78,3.16.78s2.25-.26,3.15-.78c.89-.53,1.59-1.27,2.08-2.23.5-.96.74-2.07.74-3.35s-.24-2.43-.74-3.37ZM140.48,87.65c-.52.69-1.25,1.05-2.18,1.05s-1.68-.35-2.19-1.05c-.52-.71-.77-1.69-.77-2.94s.25-2.23.77-2.93c.52-.72,1.25-1.07,2.19-1.07s1.67.35,2.18,1.07c.51.71.76,1.68.76,2.93s-.25,2.24-.76,2.94Z"/>
    <path class="cls-1" d="M148.07,78.61v2.26h7.69v-2.26h-7.69ZM153.55,74.59c-1.3,0-2.25.31-2.85.94-.61.64-.9,1.5-.9,2.59v12.67h2.92v-12.51c0-.47.11-.83.33-1.07.22-.24.57-.38,1.04-.38h1.83v-2.25h-2.37Z"/>
    <path class="cls-1" d="M166.7,88.67c-.23,0-.4-.07-.52-.19-.11-.12-.17-.34-.17-.66v-4.42c0-1.63-.45-2.89-1.33-3.76-.89-.87-2.21-1.31-3.94-1.31-1.51,0-2.73.34-3.68,1.04-.94.69-1.53,1.69-1.78,2.98l2.97.14c.15-.61.43-1.08.84-1.41.4-.32.95-.49,1.65-.49.77,0,1.36.22,1.75.65.4.43.6,1.08.6,1.95l-4.05.79c-1.33.26-2.33.68-2.99,1.28-.65.6-.98,1.42-.98,2.47s.39,1.86,1.17,2.45c.77.58,1.8.88,3.08.88.76,0,1.44-.11,2.06-.34.61-.23,1.11-.55,1.51-.97.26-.26.45-.55.6-.87.03.36.13.67.26.92.21.41.52.68.92.85.39.15.84.24,1.35.24.21,0,.42-.01.63-.03.2-.01.35-.03.44-.07v-2.12h-.39ZM163.09,85.86c0,.63-.13,1.17-.39,1.62-.26.45-.63.82-1.1,1.07-.47.26-1.04.4-1.69.4-.57,0-1.03-.13-1.33-.4-.31-.25-.46-.62-.46-1.09,0-.43.13-.77.42-1.04.28-.26.75-.47,1.4-.61l3.15-.64v.68Z"/>
    <path class="cls-1" d="M174.98,86.16c-.1.87-.4,1.51-.87,1.92-.49.41-1.08.62-1.8.62-.94,0-1.68-.35-2.19-1.05-.52-.71-.77-1.69-.77-2.94s.25-2.23.77-2.93c.52-.72,1.26-1.07,2.19-1.07.71,0,1.29.21,1.78.61.47.41.77.99.89,1.78l2.69-.14.32-.02c-.03-.24-.08-.47-.12-.71-.17-.67-.44-1.26-.82-1.76-.52-.68-1.17-1.2-1.97-1.57-.82-.36-1.73-.55-2.77-.55-1.21,0-2.27.26-3.18.81-.89.53-1.59,1.27-2.08,2.22-.5.96-.74,2.07-.74,3.35s.24,2.39.74,3.35c.5.96,1.19,1.7,2.08,2.23.9.52,1.96.78,3.18.78,1.05,0,1.97-.2,2.79-.58.81-.39,1.46-.94,1.96-1.65.35-.51.62-1.09.77-1.73.07-.25.12-.53.15-.81h-.36s-2.65-.13-2.65-.13Z"/>
    <path class="cls-1" d="M189.18,84.86c0-1.37-.24-2.54-.71-3.52-.47-.97-1.15-1.72-2.03-2.24-.87-.52-1.89-.77-3.04-.77s-2.23.26-3.12.81c-.88.53-1.58,1.27-2.06,2.22-.14.28-.25.56-.35.86-.08.23-.14.47-.2.73-.12.55-.18,1.14-.18,1.76,0,.56.04,1.08.13,1.58.06.29.12.55.21.82.1.34.23.66.39.96.49.96,1.18,1.7,2.08,2.23.89.52,1.95.78,3.16.78,1.4,0,2.59-.34,3.57-1.03.98-.68,1.64-1.62,1.97-2.81l-2.99-.18c-.17.53-.46.95-.9,1.25-.43.3-.97.44-1.63.44-.86,0-1.55-.28-2.08-.82s-.82-1.33-.88-2.4h8.66v-.66ZM180.53,83.56c.12-.94.44-1.67.95-2.17.51-.5,1.16-.75,1.93-.75s1.41.24,1.92.72c.5.49.78,1.21.84,2.21h-5.64Z"/>
  </g>
  <g>
    <path class="cls-1" d="M72.33,86.33l-4.24-10.78c-.32-.8.04-1.69.93-2.18.47-.26.82-.59.75-1.1l-1.04-7.19c-.26-1.82-1.88-3.38-4.4-3.38h-5.94c.82.83,1.34,1.84,1.5,2.92l1.08,7.37c.17,1.19-.51,2.39-1.71,3.08l4.2,10.67c.39,1.01.14,2.07-.71,2.91-.35.35-.8.63-1.31.84.27.44.41.93.41,1.44l-.03,7.76c-.01,1.82-1.04,3.58-2.65,4.89h5.37c3.28-.01,6.04-2.36,6.05-4.85l.03-7.8c0-.51-.4-.89-1.01-1.05l-.92-.24c-.81-.2-.66-.87-.63-1.46.02-.29.44-.54.8-.54h2.41c.36-.01.77-.23.93-.42.24-.28.26-.56.13-.89Z"/>
    <path class="cls-1" d="M60.47,87.27c-.18.18-.56.36-.95.36h-2.3c-.53.01-.86.35-.85.73v.57c0,.34.21.58.59.69l1.19.34c.49.14.81.55.81.97l-.03,7.75c-.01,2.39-2.74,4.63-5.63,4.9-.02,0-.03,0-.05,0-.18.02-.35.03-.53.03h-2.83s-1.79,0-1.79,0l-6.46-.02c-2.69-.01-4.96-1.95-4.95-4.04v-33.73c0-2.19,2.43-4.11,5.2-4.11h6.33s4.4-.01,4.4-.01c.14,0,.28.01.42.02h.02c2.14.16,3.71,1.52,3.95,3.17l1.08,7.37c.06.39-.2.85-.61,1.05-.75.36-1.19.99-1.19,1.65,0,.18.04.37.11.56l4.28,10.88c.13.32.04.63-.21.88Z"/>
  </g>
</svg>